<?xml version="1.0" encoding="UTF-8"?>
<svg xmlns="http://www.w3.org/2000/svg" xmlns:xlink="http://www.w3.org/1999/xlink" width="6000px" height="6000px" viewBox="0 0 6000 6000" version="1.1" preserveAspectRatio="none">
<g id="surface1">
<path style=" stroke:none;fill-rule:nonzero;fill:rgb(0%,0%,0%);fill-opacity:1;" d="M 787.5 3962.5 L 787.5 2031.25 L 5218.75 2031.25 L 5218.75 3962.5 Z M 1006.25 3743.75 L 5000 3743.75 L 5000 2250 L 1006.25 2250 Z M 1531.25 3106.25 L 2512.5 3106.25 L 2512.5 2887.5 L 1531.25 2887.5 Z M 3502.195312 3206.25 C 3559.066406 3206.25 3608.332031 3185.726562 3650 3144.679688 C 3691.667969 3103.636719 3712.5 3054.675781 3712.5 2997.804688 C 3712.5 2940.933594 3691.367188 2891.667969 3649.105469 2850 C 3606.839844 2808.332031 3556.371094 2787.5 3497.699219 2787.5 C 3440.796875 2787.5 3392.578125 2808.632812 3353.042969 2850.894531 C 3313.515625 2893.160156 3293.75 2943.628906 3293.75 3002.300781 C 3293.75 3059.203125 3314.273438 3107.421875 3355.320312 3146.957031 C 3396.363281 3186.484375 3445.324219 3206.25 3502.195312 3206.25 Z M 4312.832031 3206.25 C 4370.945312 3206.25 4419.792969 3185.726562 4459.375 3144.679688 C 4498.957031 3103.636719 4518.75 3054.675781 4518.75 2997.804688 C 4518.75 2940.933594 4498.191406 2891.667969 4457.074219 2850 C 4415.953125 2808.332031 4366.335938 2787.5 4308.226562 2787.5 C 4250.109375 2787.5 4200.875 2808.632812 4160.523438 2850.894531 C 4120.175781 2893.160156 4100 2943.628906 4100 3002.300781 C 4100 3059.203125 4120.945312 3107.421875 4162.832031 3146.957031 C 4204.714844 3186.484375 4254.714844 3206.25 4312.832031 3206.25 Z M 1006.25 3743.75 L 1006.25 2250 Z M 1006.25 3743.75 "/>
</g>
</svg>
